<svg fill="none" width="24" height="24" viewBox="0 0 24 24" xmlns="http://www.w3.org/2000/svg">
  <path d="M2 22V6H4V22H2Z" />
  <path d="M6 20V18H18V20H6Z" />
  <path d="M6 16V14H18V16H6Z" />
  <path d="M6 12V10H18V12H6Z" />
  <path d="M20 22V6H22V22H20Z" />
  <path d="M6 4V0H8V4H6Z" />
  <path d="M8 6V4H10V6H8Z" />
  <path d="M10 8V6H16V8H10Z" />
  <path d="M12 4V2H14V4H12Z" />
  <path d="M14 6V4H16V6H14Z" />
  <path d="M8 2V0H10V2H8Z" />
  <path d="M10 2V0H12V2H10Z" />
  <path d="M4 24V22H20V24H4Z" />
</svg>
